<svg xmlns="http://www.w3.org/2000/svg" id="Layer_2" data-name="Layer 2" viewBox="0 0 98 34">
  <defs>
    <style>
      .cls-1 {
        fill: #ededed;
        stroke-width: 0px;
      }
    </style>
  </defs>
  <g id="Layer_1-2" data-name="Layer 1">
    <g>
      <path class="cls-1" d="M1.75,19.16c-.02-3.7.84-6.43,3.32-8.44,2.14-1.74,4.57-2.32,7.22-1.38,3.51,1.24,2.58,1.2,6.03-.03,3.09-1.1,5.9-.55,8.3,1.68,1.25,1.16.87,1.07-.06,1.83-3.16,2.58-3.32,6.81-1.1,9.51.61.75,1.44,1.36,2.28,1.88.56.35.62.63.42,1.18-.88,2.35-2.14,4.48-3.86,6.3-1.47,1.56-3.25,2.08-5.31,1.2-.23-.1-.46-.19-.69-.28-1.73-.75-3.46-.75-5.2-.03-.46.19-.93.34-1.4.51-1.38.5-2.67.27-3.71-.7-.93-.87-1.79-1.84-2.53-2.87-2.34-3.28-3.59-6.95-3.69-10.36Z"/>
      <path class="cls-1" d="M36.46,28.07c0-1.16,0-2.31,0-3.47,0-.48.15-.73.69-.83,1.33-.24,2.65-.19,3.95.11,1.61.37,2.63,1.57,2.82,3.24.06.49.05.99.01,1.48-.2,2.44-1.74,3.57-3.83,3.87-.93.14-1.9.02-2.86.04-.61.01-.79-.3-.78-.85.01-1.2,0-2.4,0-3.6ZM38.25,28.04s0,0,0,0c0,.78-.02,1.56,0,2.34.02.73.16.83.9.82,1.94-.04,3.01-1.23,2.99-3.31-.02-2.02-1.31-3.11-3.31-2.84-.42.06-.57.26-.58.64,0,.78,0,1.56,0,2.34Z"/>
      <path class="cls-1" d="M96.45,14.13c0,1.2,0,2.39,0,3.59,0,.41.04.91-.42,1.06-.4.13-.9.21-1.17-.35-.15-.3-.32-.05-.49.04-1.77,1.03-3.52.33-4.08-1.62-.23-.78-.22-1.54,0-2.31.5-1.71,1.93-2.52,3.66-2.04.73.2.74.2.76-.52.02-.58.02-1.16,0-1.73,0-.4.13-.61.57-.61,1.22-.02,1.18.07,1.17,1.03-.01,1.16,0,2.31,0,3.47ZM94.74,15.61c-.05-.32-.08-.61-.15-.88-.13-.58-.49-.93-1.09-1.01-.58-.08-1.1.24-1.36.85-.29.7-.31,1.44-.03,2.15.21.55.67.82,1.25.84.54.02,1-.31,1.18-.89.11-.35.14-.72.2-1.05Z"/>
      <path class="cls-1" d="M66.17,27.9c0-1.28-.02-2.56,0-3.84.01-.72.13-.8.93-.78.71.01.75.05.78.78.02.37,0,.74,0,1.11.01.41.05.82.08,1.23.37-.11.73-.22,1.1-.32,1.46-.38,2.78.36,3.2,1.81.24.81.25,1.61.05,2.44-.49,2.01-2.46,2.81-4.02,1.9-.27-.16-.47-.29-.74.04-.13.15-.43.21-.66.22-.68.05-.79-.06-.79-.75,0-1.28,0-2.56,0-3.84.02,0,.03,0,.05,0ZM67.86,29.1c.02.38,0,.59.04.79.13.83.66,1.33,1.39,1.33.66,0,1.2-.43,1.32-1.24.08-.55.05-1.15-.08-1.7-.13-.55-.57-.9-1.19-.92-.61-.02-1.04.28-1.26.83-.13.34-.18.71-.23.9Z"/>
      <path class="cls-1" d="M42.59,18.84c-.84,0-.86-.01-1.14-.82-.57-1.69-.57-1.66-2.3-1.6-.55.02-.85.2-.98.73-.08.32-.22.63-.28.95-.11.62-.49.77-1.07.76-.91-.02-.96-.06-.7-.88.73-2.32,1.45-4.64,2.21-6.96.1-.32.34-.8.58-.84.59-.1,1.23-.02,1.83.05.12.01.23.32.29.51.77,2.4,1.54,4.79,2.29,7.19.25.79.12.92-.74.92ZM39.68,15.12h0c.08,0,.17,0,.25,0,.69-.03.78-.1.54-.7-.29-.73-.19-1.61-.87-2.18-.27.81-.54,1.61-.8,2.42-.1.33.09.44.38.46.16,0,.33,0,.49,0Z"/>
      <path class="cls-1" d="M56.17,14.18c0-1.24-.01-2.47,0-3.71.01-.8.06-.82.86-.83.87,0,.93.03.96.87.02.58-.01,1.15.01,1.73.02.66.04.66.62.42.15-.06.29-.16.45-.2,1.31-.39,2.41.22,2.77,1.55.1.36.15.73.16,1.1.02.95.02,1.9,0,2.84-.02.83-.12.91-.94.9-.71-.01-.78-.06-.8-.78-.02-.78,0-1.57-.01-2.35,0-.37-.04-.74-.14-1.1-.16-.6-.56-.88-1.06-.83-.49.05-.91.42-1.01.94-.05.28-.05.57-.06.86,0,.74.01,1.48,0,2.23-.02.94-.52,1.28-1.44,1-.42-.13-.39-.48-.39-.81,0-1.28,0-2.56,0-3.83h0Z"/>
      <path class="cls-1" d="M14.99,7.69c.21-3.41,2.55-6.04,5.81-6.71.66-.14.89.07.83.69-.23,2.38-1.18,4.37-3.18,5.78-.76.54-1.6.88-2.52,1.01-.73.1-.93-.08-.94-.76Z"/>
      <path class="cls-1" d="M63.12,15.72c0-2.03,1.33-3.39,3.31-3.38,1.87.02,3.15,1.33,3.15,3.26,0,1.95-1.33,3.37-3.19,3.4-1.91.03-3.26-1.33-3.27-3.28ZM67.85,15.73c-.14-.49-.21-.95-.4-1.34-.47-.96-1.59-.99-2.18-.1-.5.76-.48,2.08.03,2.81.54.77,1.57.79,2.05-.02.24-.41.34-.91.5-1.35Z"/>
      <path class="cls-1" d="M91.35,29.25c.16,1.95-1.28,3.37-3.12,3.36-1.98-.02-3.23-1.24-3.23-3.25,0-2.08,1.24-3.34,3.28-3.34,1.95,0,3.06,1.18,3.06,3.23ZM89.64,29.42c-.1-.5-.14-.92-.28-1.29-.18-.48-.54-.83-1.11-.84-.55-.01-.95.26-1.18.74-.44.91-.45,1.83.09,2.7.5.8,1.56.81,2.03,0,.24-.41.32-.91.45-1.31Z"/>
      <path class="cls-1" d="M50.16,15.74c0,.7,0,1.4,0,2.11,0,.98-.59,1.4-1.36.83-.41-.3-.56-.22-.91-.05-1.74.86-3.21.13-3.43-1.79-.15-1.26-.05-2.56-.07-3.84,0-.35.18-.5.53-.55,1.02-.14,1.22.02,1.24,1.08,0,.83-.02,1.65.02,2.48.04,1.02.43,1.51,1.12,1.49.71-.02,1.08-.51,1.1-1.5.02-.95-.01-1.9.01-2.85.02-.64.11-.7.87-.7.77,0,.86.05.88.69.03.87,0,1.73,0,2.6,0,0,0,0,.01,0Z"/>
      <path class="cls-1" d="M79.38,29.37c0,.74,0,1.49,0,2.23,0,.3.21.75-.24.84-.38.07-1.05.07-1.15-.12-.3-.59-.51-.25-.81-.08-1.59.91-3.24.21-3.46-1.56-.16-1.34-.09-2.72-.08-4.08,0-.63.52-.5.92-.53.46-.03.82.05.81.64-.02.87-.02,1.74,0,2.6,0,.37.06.74.15,1.09.12.51.49.75,1,.75.51,0,.93-.36,1.02-.91.07-.45.05-.91.05-1.36,0-.74,0-1.49.01-2.23,0-.61.44-.6.87-.59.41,0,.87-.07.87.57,0,.91,0,1.82,0,2.73h.03Z"/>
      <path class="cls-1" d="M87.16,18.96c-1.63-.02-2.77-.44-3.33-1.74-.59-1.36-.4-2.68.52-3.84.79-1,2.36-1.33,3.51-.81,1.01.46,1.66,1.78,1.52,3.01-.05.42-.25.57-.64.57-.95,0-1.91,0-2.86.02-.18,0-.45.1-.5.23-.06.15.01.47.14.54.45.27.92.55,1.42.65.42.09.9-.03,1.35-.12.44-.09.61.12.7.49.09.36.04.67-.39.76-.57.11-1.14.2-1.42.25ZM86.5,14.94c.12,0,.25.02.37,0,.29-.05.78.14.79-.3.01-.3-.24-.7-.49-.9-.42-.34-.96-.29-1.35.08-.24.23-.32.61-.47.92.26.07.52.15.79.2.12.02.24,0,.37,0Z"/>
      <path class="cls-1" d="M83.3,32.59c-1.26,0-1.84-.41-2.01-1.59-.13-.89-.12-1.8-.16-2.7-.02-.37-.02-.66-.44-.91-.59-.35-.55-.95.07-1.29.34-.18.29-.43.4-.67.11-.23.3-.5.52-.59.95-.42,1.13-.32,1.29.73.05.35.19.52.54.51.51-.03.9.04.88.71-.01.55-.28.72-.78.69-.48-.03-.65.24-.64.69.01.66,0,1.32,0,1.98,0,.54.17,1,.8,1.04.53.03.56.35.56.76,0,.51-.32.61-.72.64-.12.01-.25.02-.32.02Z"/>
      <path class="cls-1" d="M56.2,32.59c-1.33.02-1.98-.52-2.09-1.81-.07-.82-.04-1.64-.05-2.47,0-.38-.03-.66-.46-.9-.62-.34-.59-.91-.05-1.33.17-.14.44-.31.45-.47.04-.65.45-.79.97-.9.73-.16.76-.18.83.56.05.51.14.89.78.81.46-.06.69.17.69.64,0,.43-.11.67-.6.75-.84.14-.84.18-.86.98-.01.54,0,1.07,0,1.61,0,.59.17,1.07.87,1.12.57.04.47.46.48.82.01.45-.31.53-.66.57-.12.01-.25.02-.32.02Z"/>
      <path class="cls-1" d="M80.19,19c-.47-.08-.88-.11-1.28-.22-.63-.17-.73-.41-.52-.99.12-.33.29-.42.66-.33.47.12.97.17,1.46.16.18,0,.46-.26.49-.44.04-.19-.11-.5-.27-.61-.34-.23-.75-.35-1.11-.54-.96-.51-1.37-1.16-1.24-1.94.15-.9.86-1.58,1.9-1.68.57-.05,1.16.02,1.72.11.38.06.53.34.39.75-.11.33-.18.64-.67.5-.31-.09-.66-.17-.97-.11-.23.04-.5.26-.61.48-.05.11.17.45.34.56.38.24.84.36,1.23.59,1.05.61,1.41,1.73.8,2.63-.24.35-.64.65-1.03.83-.4.18-.88.19-1.28.27Z"/>
      <path class="cls-1" d="M53.95,18.93c-1.17,0-1.77-.48-1.92-1.64-.1-.81-.06-1.64-.09-2.46-.01-.48.08-.94-.59-1.17-.45-.16-.39-.91.09-1.16.28-.15.51-.24.49-.59-.02-.61.44-.71.88-.84.73-.2.78-.2.82.55.02.53.11.89.75.83.49-.04.78.12.78.68,0,.52-.29.63-.71.61-.68-.04-.85.33-.81.92.03.57,0,1.15.01,1.73.02.58.17,1.08.89,1.1.64.02.58.48.58.88,0,.43-.33.52-.68.56-.16.02-.33,0-.5,0Z"/>
      <path class="cls-1" d="M51.03,26.02c.12.01.42.01.7.08.59.14.7.41.45,1-.11.27-.25.38-.56.31-.36-.08-.74-.14-1.1-.11-.2.02-.49.23-.53.4-.04.17.13.48.3.59.34.22.76.33,1.12.53.55.3,1.05.68,1.19,1.34.21.96-.23,1.83-1.17,2.19-.92.35-1.87.29-2.8.03-.44-.13-.55-.43-.39-.87.14-.37.31-.52.74-.39.39.12.81.19,1.22.16.24-.02.56-.22.66-.43.16-.34-.08-.63-.41-.79-.22-.11-.46-.2-.68-.3-1.25-.57-1.66-1.23-1.43-2.27.19-.87,1.03-1.45,2.17-1.49.12,0,.25,0,.54,0Z"/>
      <path class="cls-1" d="M93.36,32.5c-.74-.02-.81-.05-.82-.75-.02-1.65-.03-3.29,0-4.94,0-.24.16-.63.33-.67.36-.1.89-.28,1.11.19.22.49.39.41.7.13.15-.14.33-.27.52-.33.34-.11.76-.27.99.15.28.49-.03,1.17-.54,1.34-.98.31-1.25.62-1.31,1.67-.05.78,0,1.56-.02,2.35-.02.84-.08.88-.94.86Z"/>
      <path class="cls-1" d="M58.31,29.21c0-.74-.03-1.49.01-2.23.02-.29.1-.77.28-.83.39-.14.94-.27,1.19.27.17.35.31.29.53.1.13-.11.25-.25.4-.28.35-.08.82-.25,1.03-.09.21.16.21.66.19,1.01-.01.16-.28.36-.47.44-1.22.45-1.38.65-1.4,1.97-.02.78-.01,1.57,0,2.35,0,.63-.44.59-.86.58-.41,0-.87.07-.87-.57,0-.91,0-1.81,0-2.72,0,0-.01,0-.02,0Z"/>
      <path class="cls-1" d="M70.71,15.58c0-.74-.02-1.48.01-2.22.01-.29.11-.8.25-.83.36-.07.98-.07,1.12.14.33.5.53.34.83.06.09-.08.2-.15.32-.19.38-.15.8-.39,1.09.1.3.52.02,1.15-.53,1.34-1.05.36-1.24.58-1.28,1.67-.03.7,0,1.4,0,2.1-.01,1.05-.05,1.09-.86,1.1-.87,0-.9-.03-.91-1.16,0-.7,0-1.4,0-2.1-.01,0-.02,0-.03,0Z"/>
      <path class="cls-1" d="M75.29,15.51c0-.78-.02-1.57,0-2.35.02-.65.12-.71.86-.72.76,0,.88.06.89.68.02,1.69,0,3.38.01,5.07,0,.59-.34.65-.8.65-.8,0-.94-.05-.95-.61-.03-.91,0-1.81,0-2.72,0,0,0,0,0,0Z"/>
      <path class="cls-1" d="M45.16,29.16c0-.82.01-1.64,0-2.46-.01-.6.38-.62.83-.62.79,0,.91.05.92.64.02,1.72.02,3.45,0,5.17,0,.57-.15.62-.94.62-.46,0-.82-.05-.81-.64.02-.9,0-1.81,0-2.71h0Z"/>
      <path class="cls-1" d="M64.62,29.28c0,.87.02,1.73,0,2.6-.02.59-.13.63-.93.63-.47,0-.81-.07-.8-.66.02-1.69-.01-3.38.01-5.08,0-.64.12-.7.88-.7.74,0,.82.04.84.72.03.82,0,1.65,0,2.48Z"/>
      <path class="cls-1" d="M64.79,24.32c-.02.5-.6.97-1.13.92-.51-.05-.9-.49-.88-1.02.02-.54.42-.91.97-.91.56,0,1.06.49,1.04,1.01Z"/>
      <path class="cls-1" d="M76.21,9.67c.55.01.9.37.9.94,0,.62-.39,1.02-.99.98-.52-.03-.94-.44-.95-.94-.01-.55.46-1,1.03-.98Z"/>
      <path class="cls-1" d="M47.05,24.27c0,.48-.42.93-.93.97-.57.04-1.04-.39-1.04-.96,0-.54.37-.94.9-.97.56-.03,1.06.42,1.07.96Z"/>
    </g>
  </g>
</svg>